<svg width="32" height="96" viewBox="0 0 32 96" fill="none" xmlns="http://www.w3.org/2000/svg">
<path d="M9.84007 28.0133C10.4934 28.6667 11.5467 28.6667 12.2001 28.0133L23.2801 16.9333C23.8001 16.4133 23.8001 15.5733 23.2801 15.0533L12.2001 3.97334C11.5467 3.32 10.4934 3.32 9.84007 3.97334C9.18673 4.62667 9.18673 5.68 9.84007 6.33334L19.4934 16L9.82673 25.6667C9.18673 26.3067 9.18673 27.3733 9.84007 28.0133V28.0133Z" fill="white" fill-opacity="0.54"/>
<path d="M27.3333 69H4.66675C3.19994 69 2 70.1999 2 71.6667V88.3333C2 89.8001 3.19994 91 4.66675 91H27.3333C28.8001 91 30 89.8001 30 88.3333V71.6667C30 70.1999 28.8001 69 27.3333 69ZM27 74.6667L16 82L5 74.6667V72L16 79.3333L27 72V74.6667Z" fill="white" fill-opacity="0.54"/>
</svg>
