<svg width="128" height="128" viewBox="0 0 128 128" fill="none" xmlns="http://www.w3.org/2000/svg">
<path d="M64 0C28.8 0 0 28.8 0 64C0 99.2 28.8 128 64 128C99.2 128 128 99.2 128 64C128 28.8 99.2 0 64 0Z" fill="#65E26A"/>
<path d="M58.8278 82.132C57.2623 83.7115 54.7089 83.7109 53.1442 82.1305L38.7748 67.6169C37.2379 66.0645 37.2379 63.5639 38.7748 62.0116V62.0116C40.3336 60.4371 42.8776 60.4371 44.4364 62.0116L56.004 73.6952L83.5643 45.8584C85.1227 44.2844 87.666 44.2844 89.2244 45.8584V45.8584C90.7616 47.411 90.7609 49.9121 89.223 51.4638L58.8278 82.132Z" fill="white"/>
</svg>
