<svg width="128" height="128" viewBox="0 0 128 128" fill="none" xmlns="http://www.w3.org/2000/svg">
<path d="M64 0C28.8 0 0 28.8003 0 64C0 99.1997 28.8 128 64 128C99.2 128 128 99.1997 128 64C128 28.8003 99.2 0 64 0Z" fill="#B0B0B0"/>
<path d="M69 65.1111C69 67.3202 67.2091 69.1111 65 69.1111H63C60.7909 69.1111 59 67.3202 59 65.1111V34C59 31.7909 60.7909 30 63 30H65C67.2091 30 69 31.7909 69 34V65.1111Z" fill="white"/>
<path d="M69 92C69 94.2091 67.2091 96 65 96H63C60.7909 96 59 94.2091 59 92V87.7778C59 85.5686 60.7909 83.7778 63 83.7778H65C67.2091 83.7778 69 85.5686 69 87.7778V92Z" fill="white"/>
</svg>
